<svg width="391" height="37" viewBox="0 0 391 37" fill="none" xmlns="http://www.w3.org/2000/svg">
<path fill-rule="evenodd" clip-rule="evenodd" d="M7.89936 11.0474L3.89126 15.7954L0.0941227 11.303C-0.0289328 11.157 -0.0289328 10.9561 0.0941227 10.81L8.77832 0.510352C8.84864 0.419043 8.95412 0.38252 9.05959 0.38252H25.6018L29.6274 6.31759C29.6626 6.37237 29.6978 6.46368 29.6978 6.53673C29.6978 6.73761 29.5395 6.92023 29.3286 6.92023H11.5031C11.3976 6.92023 11.2922 6.97501 11.2219 7.04806L7.89936 11.0474ZM21.33 27.0629L25.3732 31.7379L21.5937 36.2303C21.5937 36.2303 21.5761 36.2486 21.5585 36.2669C21.4003 36.413 21.1718 36.3947 21.0487 36.2303L4.04948 15.9415L8.63769 12.4353C8.7959 12.3257 9.00686 12.344 9.12991 12.4901L20.7674 26.3325L21.33 27.0629ZM34.409 11.4491C34.6024 11.2117 34.6024 10.8648 34.409 10.6274L31.3151 6.8837L25.9006 0.364258H33.6004C33.7058 0.364258 33.8113 0.419043 33.8816 0.49209L42.4252 10.6274C42.6186 10.8648 42.6186 11.2117 42.4252 11.4491L25.6369 31.5188L22.4902 26.1133C22.4023 25.9672 22.4199 25.7846 22.5254 25.675L34.409 11.4491ZM15.564 11.9422H27.1136C27.307 11.9422 27.4828 12.1066 27.4828 12.3257C27.4828 12.417 27.4476 12.5083 27.3949 12.5814L21.6288 19.4843C21.4882 19.6487 21.2597 19.6669 21.119 19.5208L21.0839 19.4843L15.3178 12.5814C15.1772 12.417 15.1948 12.1796 15.353 12.0518C15.3882 11.9605 15.4761 11.9422 15.564 11.9422Z" fill="#E5EAFA"/>
<path d="M71.0616 17.4756H79.4997C79.7458 17.4756 79.9392 17.713 79.8865 17.9687L77.3023 31.4459C77.2847 31.5554 77.232 31.6467 77.1441 31.7015C75.5268 32.9068 73.6458 33.8381 71.5011 34.4773C69.3037 35.153 66.9656 35.4817 64.4694 35.4817C61.2172 35.4817 58.3869 34.8608 55.961 33.6373C53.535 32.3955 51.6364 30.6789 50.3004 28.4875C48.9644 26.2778 48.2964 23.7394 48.2964 20.8358C48.2964 17.9322 48.7886 15.3207 49.7554 12.9284C50.7223 10.5179 52.1287 8.45431 53.9217 6.70118C55.7148 4.94805 57.8595 3.59668 60.3382 2.64707C62.8169 1.69746 65.5593 1.22266 68.5654 1.22266C71.8703 1.22266 74.7181 1.77051 77.1089 2.82969C79.3767 3.85235 81.2225 5.34981 82.664 7.30382C82.7871 7.48644 82.7519 7.7421 82.5937 7.86993L75.5971 13.5128C75.4213 13.6406 75.1928 13.6224 75.0521 13.458C74.1029 12.2528 73.1008 11.4127 72.0461 10.9379C70.9034 10.4266 69.585 10.1709 68.0907 10.1709C66.7019 10.1709 65.4538 10.4083 64.3463 10.9014C63.2388 11.3945 62.2719 12.0701 61.4809 12.965C60.6898 13.8598 60.0745 14.9007 59.6526 16.1242C59.2307 17.3478 59.0198 18.6809 59.0198 20.1418C59.0198 21.4202 59.301 22.5524 59.8636 23.5203C60.4261 24.4881 61.2172 25.2369 62.2544 25.7665C63.2915 26.296 64.5397 26.57 65.9636 26.57C66.9305 26.57 67.8973 26.4239 68.8466 26.1682C68.9873 26.1317 69.1103 26.0039 69.1279 25.8578L70.6749 17.8409C70.71 17.6217 70.8682 17.4756 71.0616 17.4756Z" fill="#E5EAFA"/>
<path d="M96.6044 10.6458L96.0243 13.659C95.9716 13.9147 96.165 14.1521 96.4111 14.1521H108.805C109.051 14.1521 109.244 14.3895 109.191 14.6451L107.82 21.7855C107.785 21.9864 107.627 22.1142 107.433 22.1142H94.7234C94.5301 22.1142 94.3719 22.2603 94.3367 22.4429L93.6687 25.9309C93.616 26.1866 93.8093 26.424 94.0554 26.424H108.875C109.121 26.424 109.314 26.6614 109.262 26.917L107.802 34.4226C107.767 34.6235 107.609 34.7513 107.416 34.7513H81.996C81.7499 34.7513 81.5565 34.5139 81.6093 34.2583L87.762 2.31846C87.7972 2.13584 87.9554 1.98975 88.1488 1.98975H112.971C113.217 1.98975 113.41 2.22715 113.358 2.48281L111.898 9.98839C111.863 10.1893 111.705 10.3171 111.512 10.3171H96.9736C96.7978 10.3171 96.6396 10.4449 96.6044 10.6458Z" fill="#E5EAFA"/>
<path d="M156.128 2.46445L150.063 34.4043C150.028 34.6051 149.87 34.733 149.677 34.733H140.799C140.553 34.733 140.359 34.4956 140.412 34.2399L142.785 21.4932C142.873 21.0732 142.346 20.8175 142.082 21.1645L134.347 31.6285C134.277 31.738 134.154 31.7928 134.031 31.7928H129.812C129.654 31.7928 129.513 31.7015 129.443 31.5372L125.171 21.2375C125.013 20.8723 124.503 20.9271 124.415 21.3106L121.901 34.4043C121.866 34.6051 121.708 34.733 121.514 34.733H112.637C112.391 34.733 112.197 34.4956 112.25 34.2399L118.403 2.3001C118.438 2.11748 118.596 1.97139 118.79 1.97139H126.859C127.017 1.97139 127.157 2.08096 127.228 2.22705L133.732 18.7174C133.855 19.0096 134.224 19.0644 134.418 18.8087L147.075 2.11748C147.145 2.02617 147.268 1.95312 147.391 1.95312H155.777C155.987 1.98965 156.181 2.22705 156.128 2.46445Z" fill="#E5EAFA"/>
<path d="M185.609 4.83858C183.306 2.93936 180.036 1.98975 175.799 1.98975H162.105C161.912 1.98975 161.754 2.13584 161.718 2.31846L155.566 34.2583C155.513 34.5139 155.706 34.7513 155.952 34.7513H165.779C165.973 34.7513 166.131 34.6052 166.166 34.4226L167.59 27.0449C167.625 26.844 167.783 26.7162 167.977 26.7162H173.092C176.344 26.7162 179.157 26.1318 181.548 24.9813C183.939 23.8308 185.784 22.2055 187.085 20.1054C188.386 18.0236 189.054 15.5948 189.054 12.8555C189.072 9.40402 187.912 6.7378 185.609 4.83858ZM177.083 17.0374C176.274 17.8044 175.131 18.1879 173.655 18.1879H169.787C169.541 18.1879 169.348 17.9505 169.401 17.6949L170.719 10.8467C170.754 10.6458 170.912 10.518 171.106 10.518H174.34C175.571 10.518 176.538 10.7736 177.241 11.285C177.944 11.7963 178.296 12.6546 178.296 13.8416C178.296 15.193 177.891 16.2704 177.083 17.0374Z" fill="#E5EAFA"/>
<path d="M213.753 1.98934H203.838C203.698 1.98934 203.575 2.06238 203.504 2.17195L183.921 34.1118C183.745 34.3857 183.939 34.7509 184.255 34.7509H194.521C194.662 34.7509 194.803 34.6779 194.873 34.55L197.791 29.2541C197.862 29.1263 198.002 29.0533 198.143 29.0533H209.605C209.798 29.0533 209.956 29.1993 209.991 29.382L210.923 34.4222C210.958 34.6231 211.116 34.7509 211.31 34.7509H221.066C221.33 34.7509 221.506 34.4953 221.453 34.2396L214.158 2.29979C214.105 2.11717 213.947 1.97108 213.753 1.98934ZM202.626 20.4702L206.37 13.6769C206.546 13.3481 207.038 13.4212 207.108 13.8047L208.356 20.5981C208.409 20.8537 208.216 21.0911 207.97 21.0911H202.977C202.661 21.0729 202.467 20.7442 202.626 20.4702Z" fill="#E5EAFA"/>
<path d="M257.174 19.959C258.475 17.8954 259.126 15.5031 259.126 12.7456C259.126 9.34894 257.983 6.70098 255.698 4.80176C253.412 2.9208 250.178 1.97119 246.011 1.97119H232.194C232.001 1.97119 231.842 2.11729 231.807 2.2999L225.654 34.2397C225.602 34.4954 225.795 34.7328 226.041 34.7328H235.868C236.061 34.7328 236.22 34.5867 236.255 34.4041L237.714 26.8254C237.749 26.6246 237.907 26.4967 238.101 26.4967H240.122C240.263 26.4967 240.404 26.5698 240.474 26.6976L244.728 34.5136C244.798 34.6415 244.939 34.7145 245.08 34.7145H255.205C255.504 34.7145 255.698 34.3675 255.557 34.0936L250.863 25.5836C250.74 25.3645 250.828 25.0906 251.057 24.9993C251.25 24.908 251.443 24.8349 251.637 24.7436C254.01 23.6296 255.873 22.0226 257.174 19.959ZM247.154 17.0371C246.345 17.8041 245.203 18.1876 243.726 18.1876H239.859C239.612 18.1876 239.419 17.9502 239.472 17.6946L240.79 10.8464C240.825 10.6455 240.984 10.5177 241.177 10.5177H244.412C245.642 10.5177 246.609 10.7734 247.312 11.2847C248.015 11.796 248.367 12.6543 248.367 13.8413C248.367 15.1927 247.963 16.2701 247.154 17.0371Z" fill="#E5EAFA"/>
<path d="M267.599 34.2583L272.046 11.0476C272.099 10.7919 271.906 10.5545 271.66 10.5545H263.397C263.151 10.5545 262.958 10.3171 263.011 10.0614L264.522 2.31846C264.558 2.13584 264.716 1.98975 264.909 1.98975H293.212C293.458 1.98975 293.651 2.22715 293.599 2.48281L292.087 10.2258C292.052 10.4084 291.893 10.5545 291.7 10.5545H283.121C282.928 10.5545 282.77 10.7006 282.735 10.8832L278.217 34.4226C278.182 34.6235 278.023 34.7513 277.83 34.7513H268.003C267.739 34.7513 267.546 34.5139 267.599 34.2583Z" fill="#E5EAFA"/>
<path d="M328.898 2.48252L322.745 34.4223C322.71 34.6232 322.552 34.751 322.358 34.751H314.167C314.026 34.751 313.903 34.678 313.832 34.5502L305.43 20.3973C305.236 20.0868 304.779 20.1599 304.709 20.5251L302.037 34.4041C302.002 34.6049 301.843 34.7328 301.65 34.7328H292.104C291.858 34.7328 291.665 34.4954 291.718 34.2397L297.87 2.2999C297.906 2.11729 298.064 1.97119 298.257 1.97119H306.449C306.59 1.97119 306.713 2.04424 306.783 2.17207L315.186 16.3249C315.379 16.6354 315.837 16.5623 315.907 16.1971L318.579 2.2999C318.614 2.09902 318.772 1.97119 318.966 1.97119H328.511C328.757 1.97119 328.951 2.20859 328.898 2.48252Z" fill="#E5EAFA"/>
<path d="M342.364 10.6458L341.784 13.659C341.731 13.9147 341.924 14.1521 342.17 14.1521H354.564C354.81 14.1521 355.003 14.3895 354.951 14.6451L353.579 21.7855C353.544 21.9864 353.386 22.1142 353.193 22.1142H340.483C340.289 22.1142 340.131 22.2603 340.096 22.4429L339.428 25.9309C339.375 26.1866 339.569 26.424 339.815 26.424H354.652C354.898 26.424 355.091 26.6614 355.039 26.917L353.579 34.4226C353.544 34.6235 353.386 34.7513 353.193 34.7513H327.773C327.527 34.7513 327.333 34.5139 327.386 34.2583L333.539 2.31846C333.574 2.13584 333.732 1.98975 333.926 1.98975H358.748C358.994 1.98975 359.187 2.22715 359.135 2.48281L357.675 9.98839C357.64 10.1893 357.482 10.3171 357.289 10.3171H342.751C342.575 10.3171 342.399 10.4449 342.364 10.6458Z" fill="#E5EAFA"/>
<path d="M389.049 19.959C390.35 17.8954 391 15.5031 391 12.7456C391 9.34894 389.857 6.70098 387.572 4.80176C385.287 2.9208 382.052 1.97119 377.886 1.97119H364.068C363.875 1.97119 363.717 2.11729 363.682 2.2999L357.529 34.2397C357.476 34.4954 357.67 34.7328 357.916 34.7328H367.743C367.936 34.7328 368.094 34.5867 368.129 34.4041L369.588 26.8254C369.624 26.6246 369.782 26.4967 369.975 26.4967H372.014C372.155 26.4967 372.296 26.5698 372.366 26.6976L376.62 34.5136C376.69 34.6415 376.813 34.7145 376.972 34.7145H387.097C387.396 34.7145 387.59 34.3675 387.449 34.0936L382.755 25.5836C382.632 25.3645 382.72 25.0906 382.949 24.9993C383.142 24.908 383.335 24.8349 383.529 24.7436C385.884 23.6296 387.748 22.0226 389.049 19.959ZM379.028 17.0371C378.22 17.8041 377.077 18.1876 375.6 18.1876H371.733C371.487 18.1876 371.294 17.9502 371.346 17.6946L372.665 10.8464C372.7 10.6455 372.858 10.5177 373.051 10.5177H376.286C377.517 10.5177 378.483 10.7734 379.187 11.2847C379.89 11.796 380.241 12.6543 380.241 13.8413C380.241 15.1927 379.837 16.2701 379.028 17.0371Z" fill="#E5EAFA"/>
</svg>
