<svg width="16" height="16" viewBox="0 0 16 16" fill="none" xmlns="http://www.w3.org/2000/svg">
<path d="M7.25 11.6143H8.75V7.11426H7.25V11.6143ZM8 0.364258C3.86 0.364258 0.5 3.72426 0.5 7.86426C0.5 12.0043 3.86 15.3643 8 15.3643C12.14 15.3643 15.5 12.0043 15.5 7.86426C15.5 3.72426 12.14 0.364258 8 0.364258ZM8 13.8643C4.6925 13.8643 2 11.1718 2 7.86426C2 4.55676 4.6925 1.86426 8 1.86426C11.3075 1.86426 14 4.55676 14 7.86426C14 11.1718 11.3075 13.8643 8 13.8643ZM7.25 5.61426H8.75V4.11426H7.25V5.61426Z" fill="#0E192D"/>
</svg>
